<?xml version="1.0" encoding="utf-8"?>
<!-- Generator: Adobe Illustrator 16.0.0, SVG Export Plug-In . SVG Version: 6.00 Build 0)  -->
<!DOCTYPE svg PUBLIC "-//W3C//DTD SVG 1.1//EN" "http://www.w3.org/Graphics/SVG/1.1/DTD/svg11.dtd">
<svg version="1.1" id="Capa_1" xmlns="http://www.w3.org/2000/svg" xmlns:xlink="http://www.w3.org/1999/xlink" x="0px" y="0px"
	 width="500px" height="500px" viewBox="0 0 500 500" enable-background="new 0 0 500 500" xml:space="preserve">
<path fill="#1C238B" d="M249.804,24.661c-124.066,0-225.002,100.935-225.002,225.001c0,124.065,100.936,224.999,225.002,224.999
	s224.998-100.934,224.998-224.999C474.802,125.596,373.87,24.661,249.804,24.661z"/>
<g>
	<path fill="#FFFFFF" d="M102.553,394.499h7.564l12.909-35.483h19.811l13.189,37.371h16.575v-1.888h1.586L138.4,296.044
		L102.553,394.499z M136.132,323.02l2.268-6.237l12.775,35.138h-4.843L136.132,323.02z M140.333,351.92h-14.712l7.467-20.529
		L140.333,351.92z M160.028,390.728l-11.191-31.712h4.936l11.534,31.712H160.028z"/>
	<path fill="#FFFFFF" d="M228.061,306.111c10.397,0,19.594,3.484,27.333,10.354l0.635,0.563l5.323-4.855l-0.763-0.699
		c-9.168-8.344-20.112-12.575-32.529-12.575c-13.32,0-24.831,4.769-34.211,14.167c-9.381,9.406-14.14,20.906-14.14,34.185
		c0,13.317,4.758,24.827,14.142,34.208c9.378,9.382,20.888,14.141,34.209,14.141c12.425,0,23.258-4.332,32.2-12.88l0.291-0.279
		v-31.444h-7.099v28.734c-7.314,5.785-15.856,8.713-25.392,8.713c-11.3,0-21.087-4.054-29.083-12.048
		c-8-8.001-12.055-17.806-12.055-29.145c0-11.304,4.055-21.09,12.055-29.087C206.974,310.166,216.76,306.111,228.061,306.111z"/>
	<path fill="#FFFFFF" d="M268.737,394.499h7.565l12.909-35.483h19.792l13.188,37.371h16.574v-1.888h1.604l-35.788-98.455
		L268.737,394.499z M306.499,351.92h-14.695l7.459-20.507L306.499,351.92z M302.306,323.043l2.277-6.261l12.776,35.138h-4.862
		L302.306,323.043z M326.194,390.728l-11.192-31.712h4.953l11.537,31.712H326.194z"/>
	<polygon fill="#FFFFFF" points="397.852,307.095 397.852,300 349.659,300 349.659,394.497 397.852,394.497 397.852,387.404 
		356.754,387.404 356.754,350.795 397.852,350.795 397.852,343.702 356.754,343.702 356.754,307.095 	"/>
</g>
<g>
	<path fill="#FFFFFF" d="M247.37,82.996c0.947,0.184,1.942,0.117,2.916,0.167c0-0.013,0-0.042,0-0.042
		c0.611,0,1.221,0.013,1.831-0.001c2.665-0.068,4.541-1.343,5.629-3.757c0.799-1.775,0.801-3.624,0.388-5.495
		c-1.786-8.043-3.553-16.093-5.368-24.127c-0.347-1.538-0.826-3.053-1.359-4.535c-0.146-0.405-0.733-0.909-1.103-0.897
		c-0.387,0.011-0.858,0.526-1.108,0.935c-0.334,0.545-0.572,1.18-0.71,1.807c-2.049,9.149-4.115,18.295-6.085,27.46
		C241.515,78.624,243.708,82.27,247.37,82.996z"/>
	<path fill="#FFFFFF" d="M352.825,205.92c-1.852-4.14-3.707-8.279-5.567-12.414l-34.133-75.811c3.229,1.367,6.414,2.848,9.552,4.458
		c8.747,4.486,16.421,10.446,23.811,16.833c2.003,1.731,4.355,2.613,6.974,2.699c5.772,0.191,10.834-4.494,11.111-10.224
		c0.293-6.069-4.198-11.213-10.123-11.567c-3.987-0.239-7.153,1.346-9.657,4.48c-0.325-0.21-0.648-0.397-0.945-0.612
		c-11.445-8.136-23.984-14.052-37.301-18.379c-15.121-4.916-30.654-7.545-46.518-8.333c-0.436-0.02-1.002-0.38-1.243-0.755
		c-3.925-6.071-11.818-6.062-15.689,0.014c-0.235,0.37-0.815,0.717-1.251,0.736c-8.238,0.416-16.417,1.32-24.531,2.811
		c-11.047,2.024-21.808,5.032-32.228,9.245c-9.889,3.997-19.227,8.996-27.959,15.29c-0.351-0.394-0.618-0.714-0.905-1.016
		c-2.752-2.895-6.15-4.01-10.034-3.337c-4.453,0.771-7.934,4.329-8.733,8.644c-0.807,4.372,1.016,8.739,4.654,11.149
		c3.84,2.546,8.565,2.513,12.36-0.164c1.192-0.841,2.288-1.824,3.386-2.792c8.553-7.545,18.066-13.533,28.417-18.163l-33.714,74.792
		c-1.856,4.124-3.707,8.253-5.553,12.383c-5.218,11.652-10.612,23.7-16.116,35.45c-1.641,3.501-1.377,6.41,0.877,9.732l0.386,0.534
		c3.002,4.169,7.073,7.641,12.449,10.607c11.462,6.329,24.551,9.708,41.194,10.628c2.457,0.141,4.924,0.21,7.331,0.21
		c9.22,0,18.212-1.021,26.731-3.039c10.565-2.497,18.635-5.904,25.398-10.716c1.783-1.269,3.314-2.557,4.653-3.883
		c1.339,1.326,2.872,2.614,4.653,3.883c6.764,4.812,14.834,8.219,25.401,10.716c8.517,2.018,17.511,3.037,26.733,3.037
		c2.404,0,4.871-0.067,7.326-0.208c16.648-0.922,29.74-4.301,41.196-10.626c5.375-2.969,9.447-6.44,12.453-10.615l0.383-0.526
		c2.254-3.324,2.516-6.233,0.877-9.733C363.428,229.6,358.04,217.561,352.825,205.92z M140.47,241.204
		c5.21-11.576,10.415-23.138,15.619-34.7h50.608l19.252,41.494c-9.287,1.851-20.765,2.946-33.196,2.946
		c-23.908,0-44.315-4.046-52.329-9.74H140.47z M308.714,128.711c1.617,3.593,3.226,7.169,4.841,10.756l-26.598,57.364h-10.729
		C287.04,174.157,297.854,151.483,308.714,128.711z M318.809,151.141c6.867,15.259,13.721,30.483,20.565,45.691h-41.753
		L318.809,151.141z M191.104,128.713c10.858,22.772,21.671,45.445,32.483,68.118h-10.713l-26.613-57.358
		C187.875,135.885,189.486,132.307,191.104,128.713z M202.209,196.832h-41.767c6.846-15.208,13.698-30.433,20.567-45.692
		L202.209,196.832z M235.496,245.588l-18.135-39.084H228.2c5.51,11.555,11.021,23.112,16.543,34.688h0.353
		C242.826,242.808,239.558,244.292,235.496,245.588z M254.657,241.206h0.407c5.523-11.581,11.037-23.143,16.55-34.702h10.857
		l-18.19,39.229l-0.434,0.936c-0.727-0.305-1.431-0.616-2.103-0.936C258.834,244.351,256.438,242.832,254.657,241.206z
		 M274.946,245.733l18.189-39.229h50.593c5.204,11.563,10.41,23.127,15.621,34.705h-0.041c-1.781,1.624-4.18,3.143-7.088,4.524
		c-10.176,4.833-26.646,7.975-45.237,7.975c-12.744,0-24.49-1.477-33.897-3.961L274.946,245.733z M256.751,218.152l-6.843,14.343
		l-12.4-25.991h24.795L256.751,218.152z M219.87,108.428c7.329-1.34,14.714-2.215,22.161-2.565c0.815-0.035,1.338,0.164,1.882,0.858
		c3.666,4.662,10.612,4.537,14.233-0.16c0.291-0.375,0.938-0.668,1.415-0.663c1.883,0.02,3.766,0.131,5.639,0.294
		c10.058,0.872,19.98,2.517,29.726,5.187c3.751,1.028,7.442,2.204,11.079,3.521l-10.317,21.624
		c-7.77,16.275-15.538,32.548-23.3,48.826l-5.474,11.481h-34.019l-38.794-81.32C202.466,112.386,211.062,110.04,219.87,108.428z"/>
</g>
</svg>
